<svg version="1.1" id="Layer_1" xmlns="http://www.w3.org/2000/svg" xmlns:xlink="http://www.w3.org/1999/xlink" x="0px" y="0px"
	 width="100%" viewBox="0 0 1170 896" enable-background="new 0 0 1170 896" xml:space="preserve">
<path fill="#FFFFFF" opacity="1.000000" stroke="none" 
	d="
M741.000000,897.000000 
	C494.029755,897.000000 247.559540,897.000000 1.044651,897.000000 
	C1.044651,598.399170 1.044651,299.798340 1.044651,1.000000 
	C195.910583,1.000000 390.821228,1.000000 585.731873,1.000000 
	C780.708313,1.000000 975.684814,1.000000 1170.830566,1.000000 
	C1170.830566,299.666595 1170.830566,598.333313 1170.830566,897.000000 
	C1027.797974,897.000000 884.648987,897.000000 741.000000,897.000000 
M576.641357,317.883789 
	C575.038147,316.804260 573.483032,314.884460 571.823547,314.789673 
	C564.358154,314.363190 556.794373,313.795410 549.400635,314.567413 
	C543.456848,315.187988 537.171997,316.686768 531.996704,319.536255 
	C524.516846,323.654663 522.565063,333.713989 526.086975,342.692322 
	C529.297791,350.877594 537.487244,356.105591 545.745972,354.721558 
	C547.533325,354.422028 549.014526,352.296173 550.636780,351.011566 
	C549.080017,350.241119 547.468872,348.717590 545.975464,348.825317 
	C537.742004,349.419312 532.594604,346.183258 531.064941,338.955200 
	C529.264221,330.446350 532.574402,323.860046 540.540955,321.775513 
	C545.290771,320.532654 550.375366,320.414124 555.325378,320.238525 
	C556.185486,320.208038 558.005127,322.509430 557.887878,323.568329 
	C556.973267,331.824310 555.795532,340.056030 554.492249,348.262451 
	C553.530396,354.319489 552.597290,360.423798 550.925598,366.300598 
	C550.393616,368.170624 547.662781,370.324280 545.691650,370.602570 
	C543.959106,370.847137 541.770813,368.799683 540.005188,367.470520 
	C539.151550,366.827881 539.023071,365.226837 538.171692,364.575134 
	C537.257385,363.875244 535.308411,363.134979 534.828735,363.560303 
	C533.936401,364.351440 533.198181,366.090576 533.423096,367.232758 
	C534.369812,372.038818 539.798889,376.306061 545.059387,376.781799 
	C550.099304,377.237610 554.399597,374.918976 556.337524,369.515320 
	C558.058716,364.715912 559.041626,359.588501 559.808289,354.523865 
	C561.200623,345.326447 562.098755,336.055328 563.390686,326.841217 
	C563.945679,322.883057 565.621643,320.053528 570.566589,320.395081 
	C572.669495,320.540314 574.877136,319.167938 577.353699,319.394379 
	C575.221313,333.197144 573.017456,346.989563 571.016541,360.811371 
	C570.614624,363.588074 568.226257,367.923401 572.992737,368.589661 
	C577.271362,369.187805 576.345764,364.575867 576.956116,361.896484 
	C578.501770,355.111511 579.574585,348.189331 581.634827,341.570526 
	C582.189575,339.788330 585.598145,338.894440 587.696777,337.592834 
	C588.396912,339.731506 589.735291,341.888763 589.673584,344.005219 
	C589.509277,349.644104 588.185059,355.292877 588.460083,360.881683 
	C588.589294,363.506927 590.814331,367.300751 593.042236,368.196899 
	C595.315369,369.111267 598.846802,367.359528 601.648376,366.301270 
	C603.029358,365.779663 604.006775,364.189758 605.424744,362.837250 
	C610.899231,369.616791 617.456970,370.411469 624.591492,367.361176 
	C631.650757,364.343048 635.802246,358.573853 637.872314,351.407684 
	C638.340271,349.787689 637.208557,347.705597 636.813232,345.836182 
	C635.355164,347.035706 633.230347,347.944977 632.559082,349.487061 
	C630.163818,354.989319 627.418518,360.296814 621.450317,362.229279 
	C618.813782,363.083038 614.835999,362.833801 612.707031,361.329926 
	C610.720764,359.926819 610.377747,356.197418 609.180298,353.159332 
	C612.166138,352.669281 613.841492,352.557434 615.419312,352.105316 
	C620.504761,350.648102 625.151184,348.531311 627.180542,343.073883 
	C629.359802,337.213715 625.990234,332.185120 619.788757,332.011444 
	C612.738220,331.813934 607.532410,336.428284 604.950684,345.103394 
	C603.719543,349.240295 602.722595,353.487427 601.028137,357.430450 
	C600.048584,359.709991 597.892212,361.483826 596.265503,363.485229 
	C595.720703,363.239014 595.175903,362.992767 594.631042,362.746521 
	C594.535828,360.866333 594.247009,358.972137 594.382141,357.108673 
	C594.767456,351.799286 595.653992,346.507599 595.738342,341.199371 
	C595.865234,333.209412 591.897461,330.340363 584.211426,332.325928 
	C583.598999,332.484161 582.975403,332.599304 581.996155,332.813354 
	C581.996155,331.757202 581.888550,330.939423 582.013611,330.158966 
	C582.829468,325.067444 583.905579,320.004456 584.403259,314.884155 
	C584.533203,313.546814 582.914368,312.039490 582.098633,310.610291 
	C580.968445,311.581390 579.526123,312.362061 578.787781,313.572144 
	C577.883972,315.053467 577.569824,316.894531 576.641357,317.883789 
M300.826721,430.362335 
	C301.293396,423.741241 302.561035,417.059937 302.068512,410.510986 
	C300.850647,394.316956 292.506500,386.648987 276.223236,386.248016 
	C263.240387,385.928314 250.244370,386.143066 237.254211,386.121674 
	C235.310287,386.118469 233.366348,386.121246 231.033661,386.121246 
	C223.367828,449.210754 215.776108,511.690216 208.187241,574.146362 
	C209.143631,574.445312 209.609390,574.717712 210.075424,574.718140 
	C226.728958,574.735168 243.398712,575.183655 260.031555,574.594177 
	C276.906555,573.996094 286.917786,564.623413 288.890411,549.039795 
	C290.811066,533.867126 292.730316,518.694275 294.642914,503.520569 
	C296.378479,489.751678 293.100372,484.041870 280.345062,478.571045 
	C279.629242,478.264069 278.931305,477.915375 277.672394,477.328400 
	C278.855347,476.699799 279.498047,476.194855 280.224457,475.996613 
	C292.187744,472.731598 297.390198,464.531464 298.096832,452.527374 
	C298.515900,445.408356 299.806610,438.340668 300.826721,430.362335 
M712.849060,503.324341 
	C713.235962,499.516571 713.491394,495.687653 714.097778,491.915161 
	C714.259521,490.909149 715.480591,489.296967 716.241394,489.281891 
	C725.480652,489.099182 734.724731,489.163330 744.556152,489.163330 
	C741.067078,518.009705 737.678894,546.022400 734.242432,574.434143 
	C742.618835,574.434143 750.516235,574.434143 759.043213,574.434143 
	C766.651672,511.844086 774.248962,449.345886 781.892395,386.468323 
	C773.397522,386.468323 765.363647,386.468323 757.027222,386.468323 
	C755.665955,397.665375 754.344055,408.552246 753.018433,419.438599 
	C751.269592,433.800537 749.560486,448.167633 747.690735,462.513824 
	C747.532043,463.731750 746.316589,465.784515 745.552124,465.803040 
	C736.166809,466.030884 726.773926,465.951385 717.158081,465.951385 
	C720.429199,439.016144 723.607178,412.847778 726.818542,386.404541 
	C718.298523,386.404541 710.384583,386.404541 701.983887,386.404541 
	C694.368896,449.130768 686.782227,511.624054 679.216309,573.945923 
	C679.943542,574.334534 680.228760,574.617493 680.518860,574.622437 
	C684.846497,574.697327 689.174744,574.767517 693.502930,574.775940 
	C703.945557,574.796204 703.935120,574.781738 705.087280,564.602051 
	C705.330444,562.453735 705.707886,560.321045 705.978088,558.175415 
	C708.242615,540.190002 710.496521,522.203186 712.849060,503.324341 
M355.968170,550.413940 
	C356.293640,566.194702 363.742584,574.216736 379.544647,574.637878 
	C395.525787,575.063843 411.526764,574.751648 427.519043,574.733459 
	C428.139252,574.732727 428.759094,574.426453 429.611328,574.201172 
	C433.300415,543.856750 436.978882,513.599792 440.670837,483.231628 
	C427.713654,483.231628 415.478119,483.231628 402.952118,483.231628 
	C402.024139,490.750519 401.135773,497.948517 400.164276,505.819946 
	C404.704315,505.819946 408.618103,505.819946 412.845337,505.819946 
	C411.546753,516.830566 410.223022,527.196594 409.123169,537.586243 
	C407.577728,552.185181 407.648834,552.192627 393.037872,551.863708 
	C384.021606,551.660706 380.982422,548.515076 381.802979,539.441345 
	C382.731750,529.171448 383.991730,518.929260 385.234589,508.690460 
	C388.100708,485.079285 390.994720,461.471283 393.985565,437.875702 
	C394.862213,430.959503 395.423950,423.892975 397.347687,417.247833 
	C399.760254,408.914124 406.372711,408.147217 416.536926,409.416626 
	C422.105896,410.112091 423.663391,413.567596 423.084778,421.953217 
	C422.688293,427.698975 422.015167,433.425629 421.414459,439.696136 
	C428.967285,439.696136 436.098267,439.820099 443.215607,439.563995 
	C444.297729,439.525055 446.112366,437.814911 446.239166,436.721313 
	C447.310547,427.481293 448.733521,418.206390 448.754456,408.939056 
	C448.781616,396.937378 441.672943,388.559662 429.508362,387.171814 
	C418.841522,385.954865 407.868073,385.946960 397.165985,386.912170 
	C385.233398,387.988403 377.674927,395.727081 374.156799,407.005646 
	C372.633148,411.890289 371.789368,417.042725 371.148804,422.137878 
	C367.414093,451.844360 363.789398,481.564941 360.216980,511.291504 
	C358.689545,524.001465 357.378052,536.737427 355.968170,550.413940 
M504.830109,538.092834 
	C504.039825,542.479065 504.695312,548.705566 502.075867,550.763367 
	C499.119232,553.086121 493.216858,551.840637 488.596619,551.825562 
	C479.433441,551.795776 476.084229,547.561829 477.332642,538.450623 
	C479.004059,526.252258 480.481720,514.026611 481.966858,501.803497 
	C485.117798,475.870361 488.073456,449.912476 491.405365,424.002838 
	C493.002838,411.580688 497.385742,408.323456 509.789886,409.080750 
	C515.957520,409.457275 518.943604,412.423584 519.041687,418.534027 
	C519.078857,420.850586 518.745850,423.177399 518.516357,425.493073 
	C518.064148,430.055176 517.566345,434.612762 517.066040,439.375732 
	C525.550476,439.375732 533.463806,439.375732 541.688477,439.375732 
	C542.650879,431.518402 543.813232,423.965485 544.459045,416.368622 
	C545.986755,398.397919 538.442993,387.318878 519.688477,386.258698 
	C513.042297,385.883026 506.358704,386.097595 499.693054,386.152344 
	C483.222107,386.287628 472.559601,393.925751 469.142151,410.027435 
	C466.215576,423.816589 464.925720,437.962555 463.116150,451.977112 
	C460.410095,472.934387 457.864502,493.912476 455.287720,514.886292 
	C454.009308,525.291748 452.720367,535.697388 451.600830,546.120605 
	C449.660309,564.187195 458.777954,574.523926 476.951263,574.746948 
	C489.948975,574.906494 502.950195,574.781616 515.949829,574.782776 
	C524.778259,574.783569 524.778137,574.782898 526.156250,565.897034 
	C526.436523,564.089966 526.770752,562.289490 526.991333,560.475220 
	C529.240601,541.973267 531.483093,523.470520 533.701477,504.964844 
	C534.562012,497.785889 535.356567,490.598999 536.196167,483.285339 
	C523.180847,483.285339 510.971375,483.285339 498.558411,483.285339 
	C497.668549,490.852936 496.824707,498.028992 495.900879,505.885468 
	C500.390686,505.885468 504.131927,505.885468 508.318848,505.885468 
	C507.762848,511.626343 507.313904,516.732117 506.762207,521.826843 
	C506.206665,526.956909 505.548950,532.075928 504.830109,538.092834 
M632.097351,551.009460 
	C631.614563,551.138000 631.136719,551.290894 630.648193,551.391541 
	C616.847839,554.236145 612.234253,549.735168 614.298096,535.923950 
	C616.067688,524.082153 617.480408,512.185669 618.957825,500.301758 
	C622.303406,473.389771 625.432983,446.448944 629.105774,419.582092 
	C629.560120,416.258667 632.072693,411.950073 634.876587,410.491638 
	C639.916992,407.869965 646.067383,407.865295 651.183289,411.039581 
	C655.906250,413.970093 653.982666,419.079254 653.906738,423.445374 
	C653.889526,424.433838 653.566833,425.413086 653.453186,426.404419 
	C652.968811,430.631500 652.510132,434.861511 652.005615,439.419739 
	C660.566162,439.419739 668.477966,439.419739 676.854980,439.419739 
	C677.812439,430.452423 679.203308,421.735321 679.581909,412.974518 
	C680.346375,395.282379 671.545227,386.365326 653.788818,386.152740 
	C648.124268,386.084930 642.456726,386.064209 636.792969,386.162964 
	C619.141113,386.470734 607.734131,395.815918 605.065125,413.238098 
	C602.270447,431.480255 600.298767,449.848785 597.987854,468.164673 
	C595.738892,485.989685 593.453613,503.810425 591.307129,521.647888 
	C590.194153,530.896301 588.748230,540.161682 588.514343,549.446167 
	C588.123291,564.974609 595.555359,573.304932 610.881348,574.449707 
	C619.635254,575.103516 628.539856,574.763184 637.302612,574.009766 
	C647.898254,573.098755 655.555298,567.289490 660.041931,557.588806 
	C663.948425,549.142700 664.607056,540.071106 665.340027,530.365173 
	C660.066528,530.365173 655.280212,530.308228 650.495667,530.376404 
	C638.490173,530.547485 641.450134,528.645996 639.331055,540.343628 
	C638.513062,544.859131 637.385742,548.760010 632.097351,551.009460 
M860.711731,551.859131 
	C857.375061,552.144348 857.396912,550.076355 857.694397,547.677368 
	C859.434814,533.642883 861.145691,519.604736 862.853149,505.566223 
	C866.810364,473.030304 870.766296,440.494263 874.707397,407.956390 
	C875.561523,400.905121 876.350952,393.845978 877.247498,386.124176 
	C869.324951,386.124176 862.037231,386.006470 854.763367,386.271362 
	C853.841675,386.304901 852.363098,388.260712 852.204773,389.465515 
	C849.755127,408.107513 847.442932,426.767914 845.174744,445.433289 
	C840.940430,480.278107 836.747192,515.127930 832.555725,549.977905 
	C831.589111,558.014893 830.698975,566.061035 829.805176,573.829041 
	C830.738647,574.330078 831.025513,574.618408 831.313477,574.619446 
	C849.471985,574.686768 867.630554,574.752441 885.788940,574.714539 
	C886.734802,574.712524 888.425110,573.914612 888.509766,573.310791 
	C889.488281,566.329773 890.223755,559.314697 891.074524,551.864136 
	C880.633118,551.864136 871.155334,551.864136 860.711731,551.859131 
M940.496094,464.069641 
	C943.602539,438.252228 946.709045,412.434814 949.838257,386.428192 
	C941.187256,386.428192 933.278137,386.428192 925.008545,386.428192 
	C917.401428,449.177673 909.827209,511.655853 902.208801,574.498535 
	C922.078552,574.498535 941.310852,574.498535 961.068115,574.498535 
	C961.943726,567.004639 962.798645,559.688477 963.735718,551.668884 
	C952.152649,551.668884 941.258484,551.668884 929.735901,551.668884 
	C933.309753,522.296204 936.798706,493.621460 940.496094,464.069641 
M798.960205,434.266174 
	C796.991882,450.114990 794.986145,465.959259 793.063904,481.813690 
	C790.140625,505.925934 787.271362,530.044739 784.387695,554.161804 
	C783.588501,560.845642 782.819702,567.533081 782.011047,574.439819 
	C790.655823,574.439819 798.560913,574.439819 806.768799,574.439819 
	C814.391235,511.634247 821.976990,449.131256 829.623962,386.123322 
	C822.341797,386.123322 815.864441,386.366028 809.417114,386.030487 
	C805.666748,385.835266 804.455811,387.380127 804.073364,390.739899 
	C802.454956,404.956726 800.715576,419.159821 798.960205,434.266174 
M343.464478,386.123627 
	C338.826508,386.123627 334.188538,386.123627 329.036865,386.123627 
	C321.405060,449.031586 313.820312,511.551758 306.188721,574.458008 
	C314.623047,574.458008 322.526062,574.458008 331.031036,574.458008 
	C338.643799,511.786469 346.237000,449.276031 353.908264,386.123108 
	C350.352264,386.123108 347.396973,386.123108 343.464478,386.123627 
M266.497437,624.766968 
	C266.037018,628.635925 265.576569,632.504822 265.118408,636.354919 
	C272.380280,637.226196 272.333649,637.173767 272.869232,630.955811 
	C273.240112,626.649231 273.805664,622.346741 274.576904,618.095581 
	C274.790222,616.919800 276.000885,615.053101 276.839417,615.005310 
	C281.927612,614.715881 287.040588,614.861084 292.705994,614.861084 
	C291.885040,622.541504 291.151764,629.401794 290.423767,636.212830 
	C297.234741,637.398926 297.323242,637.301941 297.983459,631.148010 
	C298.391846,627.341614 298.957458,623.552429 299.416870,619.751221 
	C300.544464,610.420959 301.651428,601.088196 302.764099,591.778137 
	C295.799805,590.813049 295.787994,590.811646 295.058533,597.014648 
	C294.708618,599.990417 294.607330,603.013428 293.994019,605.931091 
	C293.759735,607.045532 292.452454,608.731323 291.560455,608.779053 
	C286.444580,609.052734 281.306580,608.912170 275.834106,608.912170 
	C276.372101,602.826355 276.862823,597.275452 277.350433,591.759766 
	C270.798370,590.865601 270.743011,590.858521 270.005096,596.631836 
	C268.844513,605.711853 267.767059,614.802551 266.497437,624.766968 
M872.453003,630.787170 
	C872.453003,632.699158 872.453003,634.611145 872.453003,636.359314 
	C877.466125,637.985657 879.172363,636.029663 879.366638,631.498413 
	C879.529907,627.690063 880.291565,623.907043 880.796082,620.113831 
	C881.297302,616.345703 883.049438,613.420227 887.223755,614.241699 
	C891.254944,615.035095 889.887451,618.500244 889.583252,621.229187 
	C889.021729,626.268066 888.472778,631.308411 887.933716,636.210693 
	C893.119080,637.784790 895.068542,636.375061 895.212219,631.602844 
	C895.351990,626.964050 896.413574,622.361023 896.809875,617.720093 
	C897.466309,610.033752 891.479431,605.917969 884.375427,609.095093 
	C882.894165,609.757690 881.539917,610.704468 880.658569,611.213318 
	C878.075317,610.057068 876.026184,608.388306 873.959656,608.366516 
	C869.202698,608.316345 864.437378,609.067078 859.135620,609.541077 
	C858.045105,618.354797 856.937439,627.307373 855.847229,636.118652 
	C860.967957,637.826782 863.041321,636.714783 863.238159,631.759277 
	C863.421753,627.136108 864.045776,622.379456 865.513489,618.031860 
	C866.109436,616.266602 869.449341,615.427734 871.540771,614.167419 
	C872.323303,615.944580 873.737732,617.716187 873.753601,619.500183 
	C873.784485,622.965088 873.029968,626.436890 872.453003,630.787170 
M584.562988,608.220642 
	C583.092896,608.470459 581.560425,608.533752 580.163147,609.001160 
	C572.616272,611.526367 568.558838,620.723816 571.366577,628.755554 
	C573.927795,636.082092 581.405396,639.101257 589.296753,636.098572 
	C590.150574,635.773682 591.254456,636.010437 592.228210,636.116455 
	C594.220703,636.333435 596.203552,636.638489 598.508362,636.950378 
	C600.554810,619.885010 602.502930,603.639648 604.430969,587.561707 
	C599.020569,585.957947 597.222778,587.597473 596.992249,592.569519 
	C596.704102,598.785156 595.476685,604.957214 594.655762,611.140320 
	C591.242188,610.066406 588.315430,609.145691 584.562988,608.220642 
M408.901459,587.298645 
	C404.245941,585.991699 402.370148,587.693237 402.097931,592.579956 
	C401.744446,598.925903 400.633240,605.229614 399.788391,612.032654 
	C397.875641,610.877869 396.659241,610.025391 395.344330,609.370850 
	C390.448517,606.933838 383.825562,608.317322 379.747894,612.562744 
	C375.189911,617.308167 374.318787,625.221558 377.706177,631.109741 
	C380.468018,635.910583 385.898193,638.393738 391.338928,637.140747 
	C394.030121,636.520996 396.348328,635.008362 399.468628,636.655945 
	C401.522461,637.740356 403.743073,636.856445 404.108948,633.439514 
	C405.735870,618.245178 407.640442,603.080505 408.901459,587.298645 
M754.518311,598.572327 
	C756.492188,599.707703 758.466003,600.843018 760.717041,602.137817 
	C761.479797,599.020630 763.330933,596.323547 759.618713,593.986938 
	C750.974854,588.546204 738.968018,589.376343 731.734009,596.103638 
	C723.708252,603.567017 721.566772,617.100220 726.854980,626.935852 
	C731.430176,635.445251 741.860962,639.367371 752.310669,637.023438 
	C757.412354,635.878967 759.077759,633.223389 757.991333,627.976929 
	C756.485535,628.617981 755.176025,629.237610 753.823364,629.741577 
	C741.031921,634.507812 729.963745,626.405273 731.153625,613.120300 
	C732.107422,602.471680 739.641052,594.082825 754.518311,598.572327 
M847.440491,633.889954 
	C848.451477,625.724487 849.462463,617.559021 850.538696,608.866760 
	C847.964783,609.055542 846.036072,609.198120 844.107239,609.338074 
	C842.725220,609.438416 841.135986,610.029663 839.994751,609.552063 
	C833.392639,606.789795 826.835632,608.245056 822.739929,614.062683 
	C819.005493,619.367004 818.499939,625.226990 821.517761,631.022522 
	C823.765747,635.339661 827.644409,637.510376 832.547913,637.431946 
	C836.347717,637.371155 840.161072,637.191040 843.930237,636.743103 
	C845.105835,636.603394 846.157043,635.416992 847.440491,633.889954 
M319.453308,637.486572 
	C323.273865,636.701538 326.960846,634.849670 331.073517,636.686768 
	C331.779297,637.002014 334.183319,635.631592 334.300507,634.822327 
	C335.526123,626.358093 336.445190,617.849548 337.566772,608.357422 
	C334.631195,609.077637 332.547607,609.684753 330.423492,610.066772 
	C329.459320,610.240234 328.258118,610.272461 327.432159,609.847900 
	C321.914062,607.011169 316.775726,607.713257 312.119476,611.539612 
	C306.696747,615.995850 306.077637,622.039124 307.564575,628.339539 
	C308.905060,634.019287 313.019257,636.812317 319.453308,637.486572 
M474.143829,608.424316 
	C472.188324,609.288269 470.046417,609.880249 468.312805,611.068054 
	C463.431244,614.412720 461.200104,621.903503 462.986420,628.045044 
	C464.528961,633.348511 468.835022,637.330872 474.028290,637.318237 
	C479.126862,637.305847 484.223602,636.526978 489.809418,636.042053 
	C490.907288,627.293884 492.028320,618.361389 493.284149,608.354614 
	C489.672668,609.142517 487.162140,609.690247 485.300262,610.096375 
	C481.609436,609.457458 478.276733,608.880432 474.143829,608.424316 
M558.943237,635.649475 
	C560.612793,634.672729 562.282349,633.695984 563.951904,632.719177 
	C563.388367,631.747742 562.824890,630.776245 562.261353,629.804749 
	C560.067322,630.108704 557.645386,629.920044 555.722229,630.809509 
	C550.071167,633.423279 545.071350,631.158325 544.503601,624.824219 
	C551.288757,624.824219 558.031494,624.824219 564.688660,624.824219 
	C565.648865,615.194824 561.429199,608.918640 553.916443,608.156372 
	C547.182190,607.473083 541.326660,610.554504 538.639160,616.195862 
	C536.066589,621.596008 536.829102,629.337219 540.314148,633.201355 
	C544.498352,637.840759 551.138062,638.872375 558.943237,635.649475 
M796.532532,637.170044 
	C802.847229,638.418945 808.282166,637.354065 812.106079,631.557495 
	C809.837158,629.041382 808.002930,628.668213 805.068542,630.481995 
	C799.550537,633.892700 794.328125,631.299744 794.143982,624.932861 
	C800.853821,624.932861 807.556152,624.932861 814.154724,624.932861 
	C815.389832,615.234863 810.558350,608.599243 802.451172,608.112366 
	C794.968811,607.662903 788.802063,611.960144 787.106262,618.805237 
	C784.953003,627.496643 787.752319,633.373352 796.532532,637.170044 
M671.361145,619.287903 
	C671.282776,621.603943 670.942383,623.946899 671.177612,626.230652 
	C671.764587,631.927795 675.892822,636.153198 681.707886,637.377991 
	C688.066772,638.717346 692.908142,636.754272 696.183533,631.472778 
	C694.277222,628.848267 692.430298,628.837402 689.552307,630.589722 
	C684.169189,633.867493 679.052490,631.242798 678.455505,624.824219 
	C685.226929,624.824219 691.954468,624.824219 698.594971,624.824219 
	C699.700806,613.304016 692.945984,606.418213 682.801514,608.295837 
	C677.065063,609.357605 673.498596,613.086792 671.361145,619.287903 
M361.061981,629.318298 
	C360.912140,631.715027 360.762268,634.111816 360.610565,636.538147 
	C362.934052,636.538147 364.695038,636.538147 367.160919,636.538147 
	C367.792969,629.566162 368.583557,622.835999 368.952484,616.082764 
	C369.203033,611.497253 366.269470,608.648376 362.041016,608.478027 
	C356.852173,608.268982 351.619202,609.155640 346.120483,609.591125 
	C345.013855,618.518433 343.920990,627.334412 342.836273,636.084961 
	C347.761169,637.730225 350.046631,636.851379 350.336090,631.874939 
	C350.594604,627.430725 351.024536,622.782654 352.630280,618.719116 
	C353.457855,616.624695 356.974213,614.441101 359.339325,614.368347 
	C363.150391,614.251221 362.286713,617.959167 362.093384,620.516541 
	C361.893402,623.162048 361.454437,625.789551 361.061981,629.318298 
M511.420502,615.083191 
	C515.661621,614.803711 514.576538,611.925171 514.572998,609.472778 
	C512.683044,608.994873 511.161316,608.610046 509.740448,608.250732 
	C509.443146,595.666077 510.808319,593.046936 517.270142,593.413452 
	C518.306519,588.712952 517.307068,587.286255 512.824829,587.067444 
	C508.468994,586.854797 505.235931,589.428406 504.196045,594.405029 
	C503.450195,597.974243 503.251160,601.654663 502.630493,605.254822 
	C502.422089,606.463562 501.867218,607.734558 501.115417,608.700684 
	C499.802979,610.387268 498.215332,611.859619 497.755585,612.347351 
	C503.929810,621.271912 497.811310,629.154724 499.420837,636.309753 
	C504.062408,637.987976 506.061279,636.482788 506.305237,631.784180 
	C506.528625,627.482239 507.109314,623.173584 507.917755,618.941528 
	C508.184357,617.546021 509.652405,616.380005 511.420502,615.083191 
M645.533630,615.198242 
	C642.455688,620.993652 642.438660,626.816223 646.209351,632.185974 
	C649.334778,636.636841 654.036316,638.201782 659.411804,637.527710 
	C664.505920,636.889038 665.286194,635.698364 664.315552,629.999573 
	C659.629028,632.210510 654.774231,633.407288 651.630005,628.019226 
	C649.367371,624.141968 649.736450,619.727234 652.880737,616.388916 
	C657.455139,611.532166 662.063232,614.198669 666.375916,617.534302 
	C667.613037,611.260559 666.651428,609.547668 661.068115,608.426819 
	C654.748047,607.157959 649.565613,609.033997 645.533630,615.198242 
M419.660706,622.618591 
	C421.597595,613.106567 426.978149,611.287598 435.444550,617.282593 
	C437.443176,611.712280 436.983215,610.426697 431.798584,608.806335 
	C426.088715,607.021606 420.825104,608.031860 416.690613,612.510498 
	C412.133118,617.447327 411.964050,623.446472 413.983368,629.375488 
	C415.834595,634.810791 420.245056,637.382874 425.919098,637.625122 
	C432.535400,637.907654 433.737640,636.717773 434.116760,629.857788 
	C424.629822,633.377808 420.985229,631.766235 419.660706,622.618591 
M518.308655,610.854309 
	C518.350647,611.996216 518.021851,613.936279 518.492676,614.155029 
	C522.630371,616.077332 520.827087,619.300232 520.527039,622.204346 
	C520.040588,626.913208 519.551392,631.621704 519.068237,636.282715 
	C523.503662,637.429932 526.071716,637.267212 526.174805,632.166321 
	C526.268188,627.546204 527.132812,622.913879 528.015076,618.356079 
	C528.250000,617.142639 529.783081,615.275879 530.746033,615.259888 
	C535.658936,615.177979 534.894043,612.322388 534.408630,609.317444 
	C532.680664,608.979675 531.249878,608.700012 529.433655,608.345032 
	C529.739746,604.309021 530.034363,600.424927 530.324402,596.600708 
	C525.423950,595.056824 523.091003,596.341248 523.123535,601.465393 
	C523.146057,605.010742 522.994568,608.788391 518.308655,610.854309 
M636.743896,614.358337 
	C637.609192,606.841125 638.474487,599.323914 639.403442,591.254089 
	C636.250732,591.872070 632.740417,589.266418 632.117188,594.004761 
	C630.688843,604.864929 629.442383,615.749084 628.135315,626.625061 
	C627.748291,629.845276 627.405334,633.070801 627.010681,636.573486 
	C629.538513,636.573486 631.447205,636.573486 633.810669,636.573486 
	C634.758789,629.322083 635.679260,622.282715 636.743896,614.358337 
M454.073395,608.541809 
	C452.251251,608.692139 450.405060,608.708679 448.613739,609.030579 
	C446.838593,609.349548 443.715302,609.743896 443.589478,610.503723 
	C442.168701,619.084045 441.211334,627.741089 440.153442,636.187500 
	C445.419678,637.892639 447.430817,636.262512 447.686615,631.652832 
	C447.907013,627.681152 448.469513,623.710693 449.158905,619.788574 
	C449.683594,616.803528 451.250763,613.918701 454.743317,614.849182 
	C459.284027,616.058899 459.949127,613.001038 461.953064,609.461487 
	C459.168182,609.025879 456.995544,608.686035 454.073395,608.541809 
M772.964417,619.870483 
	C773.618286,616.920227 774.776306,613.810791 778.380432,614.851868 
	C782.896790,616.156433 783.763428,613.345337 785.357483,610.102661 
	C779.330017,605.850403 773.264526,611.531860 767.339722,608.631287 
	C766.142212,618.549072 765.062927,627.487671 763.985779,636.408569 
	C766.787781,636.408569 768.676025,636.408569 770.610413,636.408569 
	C771.389404,630.906616 772.111206,625.808472 772.964417,619.870483 
M953.010315,623.831970 
	C953.469543,621.856140 954.306885,619.814392 950.827637,619.835266 
	C939.366394,619.904175 927.904480,619.861206 916.220093,619.861206 
	C915.950439,621.681396 915.743225,623.079712 915.518066,624.599792 
	C928.123352,624.599792 940.374512,624.599792 953.010315,623.831970 
M210.981842,625.069946 
	C221.312256,625.071655 231.643982,624.980042 241.972382,625.125000 
	C245.648804,625.176514 246.789841,623.857727 245.502518,619.881775 
	C234.097549,619.881775 222.643219,619.829590 211.191635,619.983337 
	C210.299026,619.995300 208.992035,621.312378 208.688309,622.277832 
	C208.467255,622.980591 209.582870,624.103699 210.981842,625.069946 
z"/>
<path fill="#DA6C69" opacity="1.000000" stroke="none" 
	d="
M300.766052,430.806091 
	C299.806610,438.340668 298.515900,445.408356 298.096832,452.527374 
	C297.390198,464.531464 292.187744,472.731598 280.224457,475.996613 
	C279.498047,476.194855 278.855347,476.699799 277.672394,477.328400 
	C278.931305,477.915375 279.629242,478.264069 280.345062,478.571045 
	C293.100372,484.041870 296.378479,489.751678 294.642914,503.520569 
	C292.730316,518.694275 290.811066,533.867126 288.890411,549.039795 
	C286.917786,564.623413 276.906555,573.996094 260.031555,574.594177 
	C243.398712,575.183655 226.728958,574.735168 210.075424,574.718140 
	C209.609390,574.717712 209.143631,574.445312 208.187241,574.146362 
	C215.776108,511.690216 223.367828,449.210754 231.033661,386.121246 
	C233.366348,386.121246 235.310287,386.118469 237.254211,386.121674 
	C250.244370,386.143066 263.240387,385.928314 276.223236,386.248016 
	C292.506500,386.648987 300.850647,394.316956 302.068512,410.510986 
	C302.561035,417.059937 301.293396,423.741241 300.766052,430.806091 
M239.959534,517.320923 
	C238.515610,528.613464 237.071701,539.905945 235.568451,551.662476 
	C243.003433,551.662476 249.639145,552.090027 256.191986,551.536438 
	C262.175964,551.030945 264.330750,548.169861 265.089691,542.041504 
	C265.578857,538.091736 266.164337,534.153320 266.618073,530.199707 
	C267.771881,520.147217 269.123016,510.108429 269.914490,500.026428 
	C270.458130,493.101105 266.970367,489.451019 260.031769,488.988953 
	C255.562164,488.691315 251.048279,488.635376 246.585236,488.934021 
	C245.334991,489.017670 243.318222,490.607574 243.144012,491.736572 
	C241.879562,499.931274 240.996796,508.184845 239.959534,517.320923 
M273.149261,452.547852 
	C274.459961,441.160828 276.011749,429.794189 276.975250,418.377869 
	C277.427948,413.014038 274.692169,409.746185 269.760223,409.321594 
	C264.352356,408.856018 258.873505,409.215576 253.157990,409.215576 
	C250.763840,428.161377 248.421631,446.695984 246.004929,465.820190 
	C249.819763,465.820190 252.950058,465.882233 256.076294,465.796509 
	C257.895538,465.746643 259.730774,465.583344 261.519989,465.257690 
	C268.335968,464.017181 271.775421,460.430511 273.149261,452.547852 
z"/>
<path fill="#DA6D69" opacity="1.000000" stroke="none" 
	d="
M712.801331,503.770569 
	C710.496521,522.203186 708.242615,540.190002 705.978088,558.175415 
	C705.707886,560.321045 705.330444,562.453735 705.087280,564.602051 
	C703.935120,574.781738 703.945557,574.796204 693.502930,574.775940 
	C689.174744,574.767517 684.846497,574.697327 680.518860,574.622437 
	C680.228760,574.617493 679.943542,574.334534 679.216309,573.945923 
	C686.782227,511.624054 694.368896,449.130768 701.983887,386.404541 
	C710.384583,386.404541 718.298523,386.404541 726.818542,386.404541 
	C723.607178,412.847778 720.429199,439.016144 717.158081,465.951385 
	C726.773926,465.951385 736.166809,466.030884 745.552124,465.803040 
	C746.316589,465.784515 747.532043,463.731750 747.690735,462.513824 
	C749.560486,448.167633 751.269592,433.800537 753.018433,419.438599 
	C754.344055,408.552246 755.665955,397.665375 757.027222,386.468323 
	C765.363647,386.468323 773.397522,386.468323 781.892395,386.468323 
	C774.248962,449.345886 766.651672,511.844086 759.043213,574.434143 
	C750.516235,574.434143 742.618835,574.434143 734.242432,574.434143 
	C737.678894,546.022400 741.067078,518.009705 744.556152,489.163330 
	C734.724731,489.163330 725.480652,489.099182 716.241394,489.281891 
	C715.480591,489.296967 714.259521,490.909149 714.097778,491.915161 
	C713.491394,495.687653 713.235962,499.516571 712.801331,503.770569 
z"/>
<path fill="#DA6D69" opacity="1.000000" stroke="none" 
	d="
M355.968292,549.937744 
	C357.378052,536.737427 358.689545,524.001465 360.216980,511.291504 
	C363.789398,481.564941 367.414093,451.844360 371.148804,422.137878 
	C371.789368,417.042725 372.633148,411.890289 374.156799,407.005646 
	C377.674927,395.727081 385.233398,387.988403 397.165985,386.912170 
	C407.868073,385.946960 418.841522,385.954865 429.508362,387.171814 
	C441.672943,388.559662 448.781616,396.937378 448.754456,408.939056 
	C448.733521,418.206390 447.310547,427.481293 446.239166,436.721313 
	C446.112366,437.814911 444.297729,439.525055 443.215607,439.563995 
	C436.098267,439.820099 428.967285,439.696136 421.414459,439.696136 
	C422.015167,433.425629 422.688293,427.698975 423.084778,421.953217 
	C423.663391,413.567596 422.105896,410.112091 416.536926,409.416626 
	C406.372711,408.147217 399.760254,408.914124 397.347687,417.247833 
	C395.423950,423.892975 394.862213,430.959503 393.985565,437.875702 
	C390.994720,461.471283 388.100708,485.079285 385.234589,508.690460 
	C383.991730,518.929260 382.731750,529.171448 381.802979,539.441345 
	C380.982422,548.515076 384.021606,551.660706 393.037872,551.863708 
	C407.648834,552.192627 407.577728,552.185181 409.123169,537.586243 
	C410.223022,527.196594 411.546753,516.830566 412.845337,505.819946 
	C408.618103,505.819946 404.704315,505.819946 400.164276,505.819946 
	C401.135773,497.948517 402.024139,490.750519 402.952118,483.231628 
	C415.478119,483.231628 427.713654,483.231628 440.670837,483.231628 
	C436.978882,513.599792 433.300415,543.856750 429.611328,574.201172 
	C428.759094,574.426453 428.139252,574.732727 427.519043,574.733459 
	C411.526764,574.751648 395.525787,575.063843 379.544647,574.637878 
	C363.742584,574.216736 356.293640,566.194702 355.968292,549.937744 
z"/>
<path fill="#DA6D69" opacity="1.000000" stroke="none" 
	d="
M504.883057,537.646362 
	C505.548950,532.075928 506.206665,526.956909 506.762207,521.826843 
	C507.313904,516.732117 507.762848,511.626343 508.318848,505.885468 
	C504.131927,505.885468 500.390686,505.885468 495.900879,505.885468 
	C496.824707,498.028992 497.668549,490.852936 498.558411,483.285339 
	C510.971375,483.285339 523.180847,483.285339 536.196167,483.285339 
	C535.356567,490.598999 534.562012,497.785889 533.701477,504.964844 
	C531.483093,523.470520 529.240601,541.973267 526.991333,560.475220 
	C526.770752,562.289490 526.436523,564.089966 526.156250,565.897034 
	C524.778137,574.782898 524.778259,574.783569 515.949829,574.782776 
	C502.950195,574.781616 489.948975,574.906494 476.951263,574.746948 
	C458.777954,574.523926 449.660309,564.187195 451.600830,546.120605 
	C452.720367,535.697388 454.009308,525.291748 455.287720,514.886292 
	C457.864502,493.912476 460.410095,472.934387 463.116150,451.977112 
	C464.925720,437.962555 466.215576,423.816589 469.142151,410.027435 
	C472.559601,393.925751 483.222107,386.287628 499.693054,386.152344 
	C506.358704,386.097595 513.042297,385.883026 519.688477,386.258698 
	C538.442993,387.318878 545.986755,398.397919 544.459045,416.368622 
	C543.813232,423.965485 542.650879,431.518402 541.688477,439.375732 
	C533.463806,439.375732 525.550476,439.375732 517.066040,439.375732 
	C517.566345,434.612762 518.064148,430.055176 518.516357,425.493073 
	C518.745850,423.177399 519.078857,420.850586 519.041687,418.534027 
	C518.943604,412.423584 515.957520,409.457275 509.789886,409.080750 
	C497.385742,408.323456 493.002838,411.580688 491.405365,424.002838 
	C488.073456,449.912476 485.117798,475.870361 481.966858,501.803497 
	C480.481720,514.026611 479.004059,526.252258 477.332642,538.450623 
	C476.084229,547.561829 479.433441,551.795776 488.596619,551.825562 
	C493.216858,551.840637 499.119232,553.086121 502.075867,550.763367 
	C504.695312,548.705566 504.039825,542.479065 504.883057,537.646362 
z"/>
<path fill="#DA6D69" opacity="1.000000" stroke="none" 
	d="
M632.485107,550.902222 
	C637.385742,548.760010 638.513062,544.859131 639.331055,540.343628 
	C641.450134,528.645996 638.490173,530.547485 650.495667,530.376404 
	C655.280212,530.308228 660.066528,530.365173 665.340027,530.365173 
	C664.607056,540.071106 663.948425,549.142700 660.041931,557.588806 
	C655.555298,567.289490 647.898254,573.098755 637.302612,574.009766 
	C628.539856,574.763184 619.635254,575.103516 610.881348,574.449707 
	C595.555359,573.304932 588.123291,564.974609 588.514343,549.446167 
	C588.748230,540.161682 590.194153,530.896301 591.307129,521.647888 
	C593.453613,503.810425 595.738892,485.989685 597.987854,468.164673 
	C600.298767,449.848785 602.270447,431.480255 605.065125,413.238098 
	C607.734131,395.815918 619.141113,386.470734 636.792969,386.162964 
	C642.456726,386.064209 648.124268,386.084930 653.788818,386.152740 
	C671.545227,386.365326 680.346375,395.282379 679.581909,412.974518 
	C679.203308,421.735321 677.812439,430.452423 676.854980,439.419739 
	C668.477966,439.419739 660.566162,439.419739 652.005615,439.419739 
	C652.510132,434.861511 652.968811,430.631500 653.453186,426.404419 
	C653.566833,425.413086 653.889526,424.433838 653.906738,423.445374 
	C653.982666,419.079254 655.906250,413.970093 651.183289,411.039581 
	C646.067383,407.865295 639.916992,407.869965 634.876587,410.491638 
	C632.072693,411.950073 629.560120,416.258667 629.105774,419.582092 
	C625.432983,446.448944 622.303406,473.389771 618.957825,500.301758 
	C617.480408,512.185669 616.067688,524.082153 614.298096,535.923950 
	C612.234253,549.735168 616.847839,554.236145 630.648193,551.391541 
	C631.136719,551.290894 631.614563,551.138000 632.485107,550.902222 
z"/>
<path fill="#DA6D6A" opacity="1.000000" stroke="none" 
	d="
M861.194702,551.861633 
	C871.155334,551.864136 880.633118,551.864136 891.074524,551.864136 
	C890.223755,559.314697 889.488281,566.329773 888.509766,573.310791 
	C888.425110,573.914612 886.734802,574.712524 885.788940,574.714539 
	C867.630554,574.752441 849.471985,574.686768 831.313477,574.619446 
	C831.025513,574.618408 830.738647,574.330078 829.805176,573.829041 
	C830.698975,566.061035 831.589111,558.014893 832.555725,549.977905 
	C836.747192,515.127930 840.940430,480.278107 845.174744,445.433289 
	C847.442932,426.767914 849.755127,408.107513 852.204773,389.465515 
	C852.363098,388.260712 853.841675,386.304901 854.763367,386.271362 
	C862.037231,386.006470 869.324951,386.124176 877.247498,386.124176 
	C876.350952,393.845978 875.561523,400.905121 874.707397,407.956390 
	C870.766296,440.494263 866.810364,473.030304 862.853149,505.566223 
	C861.145691,519.604736 859.434814,533.642883 857.694397,547.677368 
	C857.396912,550.076355 857.375061,552.144348 861.194702,551.861633 
z"/>
<path fill="#DA6D6A" opacity="1.000000" stroke="none" 
	d="
M940.391846,464.508179 
	C936.798706,493.621460 933.309753,522.296204 929.735901,551.668884 
	C941.258484,551.668884 952.152649,551.668884 963.735718,551.668884 
	C962.798645,559.688477 961.943726,567.004639 961.068115,574.498535 
	C941.310852,574.498535 922.078552,574.498535 902.208801,574.498535 
	C909.827209,511.655853 917.401428,449.177673 925.008545,386.428192 
	C933.278137,386.428192 941.187256,386.428192 949.838257,386.428192 
	C946.709045,412.434814 943.602539,438.252228 940.391846,464.508179 
z"/>
<path fill="#DA6D6A" opacity="1.000000" stroke="none" 
	d="
M798.990356,433.817047 
	C800.715576,419.159821 802.454956,404.956726 804.073364,390.739899 
	C804.455811,387.380127 805.666748,385.835266 809.417114,386.030487 
	C815.864441,386.366028 822.341797,386.123322 829.623962,386.123322 
	C821.976990,449.131256 814.391235,511.634247 806.768799,574.439819 
	C798.560913,574.439819 790.655823,574.439819 782.011047,574.439819 
	C782.819702,567.533081 783.588501,560.845642 784.387695,554.161804 
	C787.271362,530.044739 790.140625,505.925934 793.063904,481.813690 
	C794.986145,465.959259 796.991882,450.114990 798.990356,433.817047 
z"/>
<path fill="#DA6D6A" opacity="1.000000" stroke="none" 
	d="
M343.953064,386.123352 
	C347.396973,386.123108 350.352264,386.123108 353.908264,386.123108 
	C346.237000,449.276031 338.643799,511.786469 331.031036,574.458008 
	C322.526062,574.458008 314.623047,574.458008 306.188721,574.458008 
	C313.820312,511.551758 321.405060,449.031586 329.036865,386.123627 
	C334.188538,386.123627 338.826508,386.123627 343.953064,386.123352 
z"/>
<path fill="#D77673" opacity="1.000000" stroke="none" 
	d="
M577.000732,318.580017 
	C577.569824,316.894531 577.883972,315.053467 578.787781,313.572144 
	C579.526123,312.362061 580.968445,311.581390 582.098633,310.610291 
	C582.914368,312.039490 584.533203,313.546814 584.403259,314.884155 
	C583.905579,320.004456 582.829468,325.067444 582.013611,330.158966 
	C581.888550,330.939423 581.996155,331.757202 581.996155,332.813354 
	C582.975403,332.599304 583.598999,332.484161 584.211426,332.325928 
	C591.897461,330.340363 595.865234,333.209412 595.738342,341.199371 
	C595.653992,346.507599 594.767456,351.799286 594.382141,357.108673 
	C594.247009,358.972137 594.535828,360.866333 594.631042,362.746521 
	C595.175903,362.992767 595.720703,363.239014 596.265503,363.485229 
	C597.892212,361.483826 600.048584,359.709991 601.028137,357.430450 
	C602.722595,353.487427 603.719543,349.240295 604.950684,345.103394 
	C607.532410,336.428284 612.738220,331.813934 619.788757,332.011444 
	C625.990234,332.185120 629.359802,337.213715 627.180542,343.073883 
	C625.151184,348.531311 620.504761,350.648102 615.419312,352.105316 
	C613.841492,352.557434 612.166138,352.669281 609.180298,353.159332 
	C610.377747,356.197418 610.720764,359.926819 612.707031,361.329926 
	C614.835999,362.833801 618.813782,363.083038 621.450317,362.229279 
	C627.418518,360.296814 630.163818,354.989319 632.559082,349.487061 
	C633.230347,347.944977 635.355164,347.035706 636.813232,345.836182 
	C637.208557,347.705597 638.340271,349.787689 637.872314,351.407684 
	C635.802246,358.573853 631.650757,364.343048 624.591492,367.361176 
	C617.456970,370.411469 610.899231,369.616791 605.424744,362.837250 
	C604.006775,364.189758 603.029358,365.779663 601.648376,366.301270 
	C598.846802,367.359528 595.315369,369.111267 593.042236,368.196899 
	C590.814331,367.300751 588.589294,363.506927 588.460083,360.881683 
	C588.185059,355.292877 589.509277,349.644104 589.673584,344.005219 
	C589.735291,341.888763 588.396912,339.731506 587.696777,337.592834 
	C585.598145,338.894440 582.189575,339.788330 581.634827,341.570526 
	C579.574585,348.189331 578.501770,355.111511 576.956116,361.896484 
	C576.345764,364.575867 577.271362,369.187805 572.992737,368.589661 
	C568.226257,367.923401 570.614624,363.588074 571.016541,360.811371 
	C573.017456,346.989563 575.221313,333.197144 577.181885,318.961853 
	C577.010071,318.529358 577.000671,318.580017 577.000732,318.580017 
M621.717590,338.929749 
	C616.628052,335.877350 611.864319,339.228302 610.936829,346.513153 
	C617.169678,346.539185 620.102539,344.700226 621.717590,338.929749 
z"/>
<path fill="#D77573" opacity="1.000000" stroke="none" 
	d="
M576.821045,318.231903 
	C577.000671,318.580017 577.010071,318.529358 577.023621,318.507324 
	C574.877136,319.167938 572.669495,320.540314 570.566589,320.395081 
	C565.621643,320.053528 563.945679,322.883057 563.390686,326.841217 
	C562.098755,336.055328 561.200623,345.326447 559.808289,354.523865 
	C559.041626,359.588501 558.058716,364.715912 556.337524,369.515320 
	C554.399597,374.918976 550.099304,377.237610 545.059387,376.781799 
	C539.798889,376.306061 534.369812,372.038818 533.423096,367.232758 
	C533.198181,366.090576 533.936401,364.351440 534.828735,363.560303 
	C535.308411,363.134979 537.257385,363.875244 538.171692,364.575134 
	C539.023071,365.226837 539.151550,366.827881 540.005188,367.470520 
	C541.770813,368.799683 543.959106,370.847137 545.691650,370.602570 
	C547.662781,370.324280 550.393616,368.170624 550.925598,366.300598 
	C552.597290,360.423798 553.530396,354.319489 554.492249,348.262451 
	C555.795532,340.056030 556.973267,331.824310 557.887878,323.568329 
	C558.005127,322.509430 556.185486,320.208038 555.325378,320.238525 
	C550.375366,320.414124 545.290771,320.532654 540.540955,321.775513 
	C532.574402,323.860046 529.264221,330.446350 531.064941,338.955200 
	C532.594604,346.183258 537.742004,349.419312 545.975464,348.825317 
	C547.468872,348.717590 549.080017,350.241119 550.636780,351.011566 
	C549.014526,352.296173 547.533325,354.422028 545.745972,354.721558 
	C537.487244,356.105591 529.297791,350.877594 526.086975,342.692322 
	C522.565063,333.713989 524.516846,323.654663 531.996704,319.536255 
	C537.171997,316.686768 543.456848,315.187988 549.400635,314.567413 
	C556.794373,313.795410 564.358154,314.363190 571.823547,314.789673 
	C573.483032,314.884460 575.038147,316.804260 576.821045,318.231903 
z"/>
<path fill="#D87774" opacity="1.000000" stroke="none" 
	d="
M266.575928,624.327881 
	C267.767059,614.802551 268.844513,605.711853 270.005096,596.631836 
	C270.743011,590.858521 270.798370,590.865601 277.350433,591.759766 
	C276.862823,597.275452 276.372101,602.826355 275.834106,608.912170 
	C281.306580,608.912170 286.444580,609.052734 291.560455,608.779053 
	C292.452454,608.731323 293.759735,607.045532 293.994019,605.931091 
	C294.607330,603.013428 294.708618,599.990417 295.058533,597.014648 
	C295.787994,590.811646 295.799805,590.813049 302.764099,591.778137 
	C301.651428,601.088196 300.544464,610.420959 299.416870,619.751221 
	C298.957458,623.552429 298.391846,627.341614 297.983459,631.148010 
	C297.323242,637.301941 297.234741,637.398926 290.423767,636.212830 
	C291.151764,629.401794 291.885040,622.541504 292.705994,614.861084 
	C287.040588,614.861084 281.927612,614.715881 276.839417,615.005310 
	C276.000885,615.053101 274.790222,616.919800 274.576904,618.095581 
	C273.805664,622.346741 273.240112,626.649231 272.869232,630.955811 
	C272.333649,637.173767 272.380280,637.226196 265.118408,636.354919 
	C265.576569,632.504822 266.037018,628.635925 266.575928,624.327881 
z"/>
<path fill="#D87774" opacity="1.000000" stroke="none" 
	d="
M872.526917,630.346558 
	C873.029968,626.436890 873.784485,622.965088 873.753601,619.500183 
	C873.737732,617.716187 872.323303,615.944580 871.540771,614.167419 
	C869.449341,615.427734 866.109436,616.266602 865.513489,618.031860 
	C864.045776,622.379456 863.421753,627.136108 863.238159,631.759277 
	C863.041321,636.714783 860.967957,637.826782 855.847229,636.118652 
	C856.937439,627.307373 858.045105,618.354797 859.135620,609.541077 
	C864.437378,609.067078 869.202698,608.316345 873.959656,608.366516 
	C876.026184,608.388306 878.075317,610.057068 880.658569,611.213318 
	C881.539917,610.704468 882.894165,609.757690 884.375427,609.095093 
	C891.479431,605.917969 897.466309,610.033752 896.809875,617.720093 
	C896.413574,622.361023 895.351990,626.964050 895.212219,631.602844 
	C895.068542,636.375061 893.119080,637.784790 887.933716,636.210693 
	C888.472778,631.308411 889.021729,626.268066 889.583252,621.229187 
	C889.887451,618.500244 891.254944,615.035095 887.223755,614.241699 
	C883.049438,613.420227 881.297302,616.345703 880.796082,620.113831 
	C880.291565,623.907043 879.529907,627.690063 879.366638,631.498413 
	C879.172363,636.029663 877.466125,637.985657 872.453003,636.359314 
	C872.453003,634.611145 872.453003,632.699158 872.526917,630.346558 
z"/>
<path fill="#D77573" opacity="1.000000" stroke="none" 
	d="
M584.975830,608.222778 
	C588.315430,609.145691 591.242188,610.066406 594.655762,611.140320 
	C595.476685,604.957214 596.704102,598.785156 596.992249,592.569519 
	C597.222778,587.597473 599.020569,585.957947 604.430969,587.561707 
	C602.502930,603.639648 600.554810,619.885010 598.508362,636.950378 
	C596.203552,636.638489 594.220703,636.333435 592.228210,636.116455 
	C591.254456,636.010437 590.150574,635.773682 589.296753,636.098572 
	C581.405396,639.101257 573.927795,636.082092 571.366577,628.755554 
	C568.558838,620.723816 572.616272,611.526367 580.163147,609.001160 
	C581.560425,608.533752 583.092896,608.470459 584.975830,608.222778 
M578.197693,618.955139 
	C577.896484,619.907715 577.456177,620.840637 577.318604,621.816345 
	C576.755066,625.811096 577.846130,629.113281 581.688965,630.989014 
	C585.674622,632.934448 588.803650,631.326477 591.394958,628.282471 
	C594.724060,624.371643 594.519653,618.519836 591.062561,615.658813 
	C587.410034,612.635986 582.544495,613.650574 578.197693,618.955139 
z"/>
<path fill="#D77573" opacity="1.000000" stroke="none" 
	d="
M409.173035,587.601929 
	C407.640442,603.080505 405.735870,618.245178 404.108948,633.439514 
	C403.743073,636.856445 401.522461,637.740356 399.468628,636.655945 
	C396.348328,635.008362 394.030121,636.520996 391.338928,637.140747 
	C385.898193,638.393738 380.468018,635.910583 377.706177,631.109741 
	C374.318787,625.221558 375.189911,617.308167 379.747894,612.562744 
	C383.825562,608.317322 390.448517,606.933838 395.344330,609.370850 
	C396.659241,610.025391 397.875641,610.877869 399.788391,612.032654 
	C400.633240,605.229614 401.744446,598.925903 402.097931,592.579956 
	C402.370148,587.693237 404.245941,585.991699 409.173035,587.601929 
M383.258331,627.606323 
	C386.975891,632.017761 390.023315,632.894104 393.887054,630.662781 
	C397.696686,628.462585 399.887177,622.946899 398.492523,619.065857 
	C397.132111,615.280090 393.411377,613.259033 389.311340,614.078674 
	C385.129547,614.914673 382.725586,618.455627 382.727081,623.856079 
	C382.727356,624.843994 382.900635,625.831848 383.258331,627.606323 
z"/>
<path fill="#D77472" opacity="1.000000" stroke="none" 
	d="
M754.162720,598.395996 
	C739.641052,594.082825 732.107422,602.471680 731.153625,613.120300 
	C729.963745,626.405273 741.031921,634.507812 753.823364,629.741577 
	C755.176025,629.237610 756.485535,628.617981 757.991333,627.976929 
	C759.077759,633.223389 757.412354,635.878967 752.310669,637.023438 
	C741.860962,639.367371 731.430176,635.445251 726.854980,626.935852 
	C721.566772,617.100220 723.708252,603.567017 731.734009,596.103638 
	C738.968018,589.376343 750.974854,588.546204 759.618713,593.986938 
	C763.330933,596.323547 761.479797,599.020630 760.717041,602.137817 
	C758.466003,600.843018 756.492188,599.707703 754.162720,598.395996 
z"/>
<path fill="#D77573" opacity="1.000000" stroke="none" 
	d="
M847.352844,634.299866 
	C846.157043,635.416992 845.105835,636.603394 843.930237,636.743103 
	C840.161072,637.191040 836.347717,637.371155 832.547913,637.431946 
	C827.644409,637.510376 823.765747,635.339661 821.517761,631.022522 
	C818.499939,625.226990 819.005493,619.367004 822.739929,614.062683 
	C826.835632,608.245056 833.392639,606.789795 839.994751,609.552063 
	C841.135986,610.029663 842.725220,609.438416 844.107239,609.338074 
	C846.036072,609.198120 847.964783,609.055542 850.538696,608.866760 
	C849.462463,617.559021 848.451477,625.724487 847.352844,634.299866 
M842.167908,621.565552 
	C842.154236,617.839600 840.622070,615.127319 836.868164,614.147522 
	C832.546387,613.019592 828.124329,615.878113 827.040955,620.349426 
	C825.785034,625.532898 827.788940,630.147339 831.877502,631.486694 
	C835.689209,632.735291 840.306580,629.912415 841.783081,625.344727 
	C842.082214,624.419434 842.053406,623.388184 842.167908,621.565552 
z"/>
<path fill="#D77573" opacity="1.000000" stroke="none" 
	d="
M319.071228,637.477051 
	C313.019257,636.812317 308.905060,634.019287 307.564575,628.339539 
	C306.077637,622.039124 306.696747,615.995850 312.119476,611.539612 
	C316.775726,607.713257 321.914062,607.011169 327.432159,609.847900 
	C328.258118,610.272461 329.459320,610.240234 330.423492,610.066772 
	C332.547607,609.684753 334.631195,609.077637 337.566772,608.357422 
	C336.445190,617.849548 335.526123,626.358093 334.300507,634.822327 
	C334.183319,635.631592 331.779297,637.002014 331.073517,636.686768 
	C326.960846,634.849670 323.273865,636.701538 319.071228,637.477051 
M322.401886,614.000854 
	C320.971588,614.319214 319.393677,614.354248 318.138397,615.008423 
	C314.185333,617.068420 312.253113,623.623047 314.526489,627.701538 
	C316.391602,631.047668 319.344147,632.860779 323.267059,631.273254 
	C327.389740,629.604980 329.320740,626.326416 329.248352,621.877319 
	C329.181396,617.763916 327.564758,614.847168 322.401886,614.000854 
z"/>
<path fill="#D77472" opacity="1.000000" stroke="none" 
	d="
M474.543945,608.363892 
	C478.276733,608.880432 481.609436,609.457458 485.300262,610.096375 
	C487.162140,609.690247 489.672668,609.142517 493.284149,608.354614 
	C492.028320,618.361389 490.907288,627.293884 489.809418,636.042053 
	C484.223602,636.526978 479.126862,637.305847 474.028290,637.318237 
	C468.835022,637.330872 464.528961,633.348511 462.986420,628.045044 
	C461.200104,621.903503 463.431244,614.412720 468.312805,611.068054 
	C470.046417,609.880249 472.188324,609.288269 474.543945,608.363892 
M483.858521,627.016541 
	C486.162903,619.992310 484.107971,614.701599 478.748322,614.037476 
	C474.033905,613.453308 471.244873,615.960938 469.787292,620.127625 
	C468.331268,624.290100 469.039307,628.199463 472.821808,630.666077 
	C477.198975,633.520630 480.624817,631.192444 483.858521,627.016541 
z"/>
<path fill="#D77472" opacity="1.000000" stroke="none" 
	d="
M558.608887,635.820679 
	C551.138062,638.872375 544.498352,637.840759 540.314148,633.201355 
	C536.829102,629.337219 536.066589,621.596008 538.639160,616.195862 
	C541.326660,610.554504 547.182190,607.473083 553.916443,608.156372 
	C561.429199,608.918640 565.648865,615.194824 564.688660,624.824219 
	C558.031494,624.824219 551.288757,624.824219 544.503601,624.824219 
	C545.071350,631.158325 550.071167,633.423279 555.722229,630.809509 
	C557.645386,629.920044 560.067322,630.108704 562.261353,629.804749 
	C562.824890,630.776245 563.388367,631.747742 563.951904,632.719177 
	C562.282349,633.695984 560.612793,634.672729 558.608887,635.820679 
M545.922852,616.182007 
	C545.518188,617.286865 545.113525,618.391663 544.733276,619.429932 
	C549.461243,619.429932 553.640198,619.429932 557.914368,619.429932 
	C556.234680,613.373962 552.401184,612.235840 545.922852,616.182007 
z"/>
<path fill="#D77472" opacity="1.000000" stroke="none" 
	d="
M796.149597,637.078125 
	C787.752319,633.373352 784.953003,627.496643 787.106262,618.805237 
	C788.802063,611.960144 794.968811,607.662903 802.451172,608.112366 
	C810.558350,608.599243 815.389832,615.234863 814.154724,624.932861 
	C807.556152,624.932861 800.853821,624.932861 794.143982,624.932861 
	C794.328125,631.299744 799.550537,633.892700 805.068542,630.481995 
	C808.002930,628.668213 809.837158,629.041382 812.106079,631.557495 
	C808.282166,637.354065 802.847229,638.418945 796.149597,637.078125 
M802.287476,619.894409 
	C803.998901,619.813599 805.710327,619.732727 807.557556,619.645508 
	C806.825195,614.443970 803.719299,613.510559 799.875427,613.884033 
	C796.590820,614.203186 794.377502,615.758606 794.276245,619.893311 
	C796.803345,619.893311 799.102417,619.893311 802.287476,619.894409 
z"/>
<path fill="#D77472" opacity="1.000000" stroke="none" 
	d="
M671.485474,618.899414 
	C673.498596,613.086792 677.065063,609.357605 682.801514,608.295837 
	C692.945984,606.418213 699.700806,613.304016 698.594971,624.824219 
	C691.954468,624.824219 685.226929,624.824219 678.455505,624.824219 
	C679.052490,631.242798 684.169189,633.867493 689.552307,630.589722 
	C692.430298,628.837402 694.277222,628.848267 696.183533,631.472778 
	C692.908142,636.754272 688.066772,638.717346 681.707886,637.377991 
	C675.892822,636.153198 671.764587,631.927795 671.177612,626.230652 
	C670.942383,623.946899 671.282776,621.603943 671.485474,618.899414 
M679.531616,619.808716 
	C683.594543,619.808716 687.657410,619.808716 692.026855,619.808716 
	C691.257202,614.854370 688.523499,613.583984 684.813660,613.857910 
	C681.387085,614.110840 678.630249,615.302002 679.531616,619.808716 
z"/>
<path fill="#D87774" opacity="1.000000" stroke="none" 
	d="
M361.091003,628.871582 
	C361.454437,625.789551 361.893402,623.162048 362.093384,620.516541 
	C362.286713,617.959167 363.150391,614.251221 359.339325,614.368347 
	C356.974213,614.441101 353.457855,616.624695 352.630280,618.719116 
	C351.024536,622.782654 350.594604,627.430725 350.336090,631.874939 
	C350.046631,636.851379 347.761169,637.730225 342.836273,636.084961 
	C343.920990,627.334412 345.013855,618.518433 346.120483,609.591125 
	C351.619202,609.155640 356.852173,608.268982 362.041016,608.478027 
	C366.269470,608.648376 369.203033,611.497253 368.952484,616.082764 
	C368.583557,622.835999 367.792969,629.566162 367.160919,636.538147 
	C364.695038,636.538147 362.934052,636.538147 360.610565,636.538147 
	C360.762268,634.111816 360.912140,631.715027 361.091003,628.871582 
z"/>
<path fill="#D77573" opacity="1.000000" stroke="none" 
	d="
M510.995819,615.096130 
	C509.652405,616.380005 508.184357,617.546021 507.917755,618.941528 
	C507.109314,623.173584 506.528625,627.482239 506.305237,631.784180 
	C506.061279,636.482788 504.062408,637.987976 499.420837,636.309753 
	C497.811310,629.154724 503.929810,621.271912 497.755585,612.347351 
	C498.215332,611.859619 499.802979,610.387268 501.115417,608.700684 
	C501.867218,607.734558 502.422089,606.463562 502.630493,605.254822 
	C503.251160,601.654663 503.450195,597.974243 504.196045,594.405029 
	C505.235931,589.428406 508.468994,586.854797 512.824829,587.067444 
	C517.307068,587.286255 518.306519,588.712952 517.270142,593.413452 
	C510.808319,593.046936 509.443146,595.666077 509.740448,608.250732 
	C511.161316,608.610046 512.683044,608.994873 514.572998,609.472778 
	C514.576538,611.925171 515.661621,614.803711 510.995819,615.096130 
z"/>
<path fill="#D77673" opacity="1.000000" stroke="none" 
	d="
M645.739136,614.887085 
	C649.565613,609.033997 654.748047,607.157959 661.068115,608.426819 
	C666.651428,609.547668 667.613037,611.260559 666.375916,617.534302 
	C662.063232,614.198669 657.455139,611.532166 652.880737,616.388916 
	C649.736450,619.727234 649.367371,624.141968 651.630005,628.019226 
	C654.774231,633.407288 659.629028,632.210510 664.315552,629.999573 
	C665.286194,635.698364 664.505920,636.889038 659.411804,637.527710 
	C654.036316,638.201782 649.334778,636.636841 646.209351,632.185974 
	C642.438660,626.816223 642.455688,620.993652 645.739136,614.887085 
z"/>
<path fill="#D77673" opacity="1.000000" stroke="none" 
	d="
M419.658447,623.041138 
	C420.985229,631.766235 424.629822,633.377808 434.116760,629.857788 
	C433.737640,636.717773 432.535400,637.907654 425.919098,637.625122 
	C420.245056,637.382874 415.834595,634.810791 413.983368,629.375488 
	C411.964050,623.446472 412.133118,617.447327 416.690613,612.510498 
	C420.825104,608.031860 426.088715,607.021606 431.798584,608.806335 
	C436.983215,610.426697 437.443176,611.712280 435.444550,617.282593 
	C426.978149,611.287598 421.597595,613.106567 419.658447,623.041138 
z"/>
<path fill="#D77673" opacity="1.000000" stroke="none" 
	d="
M518.411377,610.461670 
	C522.994568,608.788391 523.146057,605.010742 523.123535,601.465393 
	C523.091003,596.341248 525.423950,595.056824 530.324402,596.600708 
	C530.034363,600.424927 529.739746,604.309021 529.433655,608.345032 
	C531.249878,608.700012 532.680664,608.979675 534.408630,609.317444 
	C534.894043,612.322388 535.658936,615.177979 530.746033,615.259888 
	C529.783081,615.275879 528.250000,617.142639 528.015076,618.356079 
	C527.132812,622.913879 526.268188,627.546204 526.174805,632.166321 
	C526.071716,637.267212 523.503662,637.429932 519.068237,636.282715 
	C519.551392,631.621704 520.040588,626.913208 520.527039,622.204346 
	C520.827087,619.300232 522.630371,616.077332 518.492676,614.155029 
	C518.021851,613.936279 518.350647,611.996216 518.411377,610.461670 
z"/>
<path fill="#D87774" opacity="1.000000" stroke="none" 
	d="
M636.671753,614.800903 
	C635.679260,622.282715 634.758789,629.322083 633.810669,636.573486 
	C631.447205,636.573486 629.538513,636.573486 627.010681,636.573486 
	C627.405334,633.070801 627.748291,629.845276 628.135315,626.625061 
	C629.442383,615.749084 630.688843,604.864929 632.117188,594.004761 
	C632.740417,589.266418 636.250732,591.872070 639.403442,591.254089 
	C638.474487,599.323914 637.609192,606.841125 636.671753,614.800903 
z"/>
<path fill="#D77673" opacity="1.000000" stroke="none" 
	d="
M454.448151,608.443970 
	C456.995544,608.686035 459.168182,609.025879 461.953064,609.461487 
	C459.949127,613.001038 459.284027,616.058899 454.743317,614.849182 
	C451.250763,613.918701 449.683594,616.803528 449.158905,619.788574 
	C448.469513,623.710693 447.907013,627.681152 447.686615,631.652832 
	C447.430817,636.262512 445.419678,637.892639 440.153442,636.187500 
	C441.211334,627.741089 442.168701,619.084045 443.589478,610.503723 
	C443.715302,609.743896 446.838593,609.349548 448.613739,609.030579 
	C450.405060,608.708679 452.251251,608.692139 454.448151,608.443970 
z"/>
<path fill="#D77673" opacity="1.000000" stroke="none" 
	d="
M772.898682,620.290405 
	C772.111206,625.808472 771.389404,630.906616 770.610413,636.408569 
	C768.676025,636.408569 766.787781,636.408569 763.985779,636.408569 
	C765.062927,627.487671 766.142212,618.549072 767.339722,608.631287 
	C773.264526,611.531860 779.330017,605.850403 785.357483,610.102661 
	C783.763428,613.345337 782.896790,616.156433 778.380432,614.851868 
	C774.776306,613.810791 773.618286,616.920227 772.898682,620.290405 
z"/>
<path fill="#D77472" opacity="1.000000" stroke="none" 
	d="
M952.817993,624.215881 
	C940.374512,624.599792 928.123352,624.599792 915.518066,624.599792 
	C915.743225,623.079712 915.950439,621.681396 916.220093,619.861206 
	C927.904480,619.861206 939.366394,619.904175 950.827637,619.835266 
	C954.306885,619.814392 953.469543,621.856140 952.817993,624.215881 
z"/>
<path fill="#D77472" opacity="1.000000" stroke="none" 
	d="
M210.542206,625.054688 
	C209.582870,624.103699 208.467255,622.980591 208.688309,622.277832 
	C208.992035,621.312378 210.299026,619.995300 211.191635,619.983337 
	C222.643219,619.829590 234.097549,619.881775 245.502518,619.881775 
	C246.789841,623.857727 245.648804,625.176514 241.972382,625.125000 
	C231.643982,624.980042 221.312256,625.071655 210.542206,625.054688 
z"/>
<path fill="#FFFBFB" opacity="1.000000" stroke="none" 
	d="
M239.976410,516.870361 
	C240.996796,508.184845 241.879562,499.931274 243.144012,491.736572 
	C243.318222,490.607574 245.334991,489.017670 246.585236,488.934021 
	C251.048279,488.635376 255.562164,488.691315 260.031769,488.988953 
	C266.970367,489.451019 270.458130,493.101105 269.914490,500.026428 
	C269.123016,510.108429 267.771881,520.147217 266.618073,530.199707 
	C266.164337,534.153320 265.578857,538.091736 265.089691,542.041504 
	C264.330750,548.169861 262.175964,551.030945 256.191986,551.536438 
	C249.639145,552.090027 243.003433,551.662476 235.568451,551.662476 
	C237.071701,539.905945 238.515610,528.613464 239.976410,516.870361 
z"/>
<path fill="#FFFBFB" opacity="1.000000" stroke="none" 
	d="
M273.101837,452.966187 
	C271.775421,460.430511 268.335968,464.017181 261.519989,465.257690 
	C259.730774,465.583344 257.895538,465.746643 256.076294,465.796509 
	C252.950058,465.882233 249.819763,465.820190 246.004929,465.820190 
	C248.421631,446.695984 250.763840,428.161377 253.157990,409.215576 
	C258.873505,409.215576 264.352356,408.856018 269.760223,409.321594 
	C274.692169,409.746185 277.427948,413.014038 276.975250,418.377869 
	C276.011749,429.794189 274.459961,441.160828 273.101837,452.966187 
z"/>
<path fill="#FEECEA" opacity="1.000000" stroke="none" 
	d="
M621.807739,339.285065 
	C620.102539,344.700226 617.169678,346.539185 610.936829,346.513153 
	C611.864319,339.228302 616.628052,335.877350 621.807739,339.285065 
z"/>
<path fill="#FEF7F6" opacity="1.000000" stroke="none" 
	d="
M578.373901,618.611572 
	C582.544495,613.650574 587.410034,612.635986 591.062561,615.658813 
	C594.519653,618.519836 594.724060,624.371643 591.394958,628.282471 
	C588.803650,631.326477 585.674622,632.934448 581.688965,630.989014 
	C577.846130,629.113281 576.755066,625.811096 577.318604,621.816345 
	C577.456177,620.840637 577.896484,619.907715 578.373901,618.611572 
z"/>
<path fill="#FEF7F6" opacity="1.000000" stroke="none" 
	d="
M383.126221,627.213013 
	C382.900635,625.831848 382.727356,624.843994 382.727081,623.856079 
	C382.725586,618.455627 385.129547,614.914673 389.311340,614.078674 
	C393.411377,613.259033 397.132111,615.280090 398.492523,619.065857 
	C399.887177,622.946899 397.696686,628.462585 393.887054,630.662781 
	C390.023315,632.894104 386.975891,632.017761 383.126221,627.213013 
z"/>
<path fill="#FEF7F6" opacity="1.000000" stroke="none" 
	d="
M842.171875,621.985657 
	C842.053406,623.388184 842.082214,624.419434 841.783081,625.344727 
	C840.306580,629.912415 835.689209,632.735291 831.877502,631.486694 
	C827.788940,630.147339 825.785034,625.532898 827.040955,620.349426 
	C828.124329,615.878113 832.546387,613.019592 836.868164,614.147522 
	C840.622070,615.127319 842.154236,617.839600 842.171875,621.985657 
z"/>
<path fill="#FEF7F6" opacity="1.000000" stroke="none" 
	d="
M322.805664,614.019958 
	C327.564758,614.847168 329.181396,617.763916 329.248352,621.877319 
	C329.320740,626.326416 327.389740,629.604980 323.267059,631.273254 
	C319.344147,632.860779 316.391602,631.047668 314.526489,627.701538 
	C312.253113,623.623047 314.185333,617.068420 318.138397,615.008423 
	C319.393677,614.354248 320.971588,614.319214 322.805664,614.019958 
z"/>
<path fill="#FEF7F6" opacity="1.000000" stroke="none" 
	d="
M483.678040,627.359497 
	C480.624817,631.192444 477.198975,633.520630 472.821808,630.666077 
	C469.039307,628.199463 468.331268,624.290100 469.787292,620.127625 
	C471.244873,615.960938 474.033905,613.453308 478.748322,614.037476 
	C484.107971,614.701599 486.162903,619.992310 483.678040,627.359497 
z"/>
<path fill="#FEECEA" opacity="1.000000" stroke="none" 
	d="
M546.152405,615.879272 
	C552.401184,612.235840 556.234680,613.373962 557.914368,619.429932 
	C553.640198,619.429932 549.461243,619.429932 544.733276,619.429932 
	C545.113525,618.391663 545.518188,617.286865 546.152405,615.879272 
z"/>
<path fill="#FEECEA" opacity="1.000000" stroke="none" 
	d="
M801.844482,619.893860 
	C799.102417,619.893311 796.803345,619.893311 794.276245,619.893311 
	C794.377502,615.758606 796.590820,614.203186 799.875427,613.884033 
	C803.719299,613.510559 806.825195,614.443970 807.557556,619.645508 
	C805.710327,619.732727 803.998901,619.813599 801.844482,619.893860 
z"/>
<path fill="#FEECEA" opacity="1.000000" stroke="none" 
	d="
M679.180481,619.656982 
	C678.630249,615.302002 681.387085,614.110840 684.813660,613.857910 
	C688.523499,613.583984 691.257202,614.854370 692.026855,619.808716 
	C687.657410,619.808716 683.594543,619.808716 679.180481,619.656982 
z"/>
</svg>